#!OML:ASF H:\ColoradoDance\Project 1\Capture day 1\Session 8\male.ASF
:FULLY-SPECIFIED
:DEGREES
1
upperback -3.734740 0.341031 -0.608922
rfoot -34.404099 -34.002602
lradius 28.931499
lthumb 2.746520 58.198299
rradius 26.502501
lwrist -11.283900
rhand -44.445702 -8.047270
rhumerus -40.412701 -8.089770 -83.224899
lowerneck -6.546920 -1.203630 2.756700
lhand -23.721300 28.236300
ltibia 34.510700
head 2.876070 -0.870329 -1.525590
rwrist 7.812810
lfingers 7.125020
rtoes 10.284600
lowerback -0.449025 0.233620 -0.405833
rfingers 7.125020
lclavicle 0.000000 0.000000
upperneck 5.539100 -1.659390 -2.980290
rfemur -18.826000 -3.437950 23.227800
thorax -3.584000 0.195272 -0.409499
rclavicle 0.000000 0.000000
rtibia 38.867699
lfoot -26.832500 22.411900
lhumerus -41.598999 4.932510 77.688499
rthumb -17.250299 -37.301601
root -28.119900 19.575600 -7.550070 32.569698 89.774803 25.736300
ltoes 14.589300
lfemur -16.960800 0.879953 -21.744499
2
upperback -3.670280 0.346829 -0.710180
rfoot -35.150398 -33.736900
lradius 28.421000
lthumb 2.570700 58.260601
rradius 26.326500
lwrist -11.754000
rhand -27.518101 1.114130
rhumerus -40.695599 -8.296230 -83.394096
lowerneck -7.393490 -1.429960 2.348250
lhand -23.903400 28.296301
ltibia 34.597000
head 3.451980 -1.009050 -1.087030
rwrist 8.014780
lfingers 7.125020
rtoes 12.129500
lowerback -0.923588 0.238069 -0.798926
rfingers 7.125020
lclavicle 0.000000 -0.000000
upperneck 6.748230 -2.020860 -1.722460
rfemur -18.557600 -3.686670 22.921000
thorax -3.251060 0.209060 -0.290349
rclavicle 0.000000 -0.000000
rtibia 38.838299
lfoot -26.910299 22.573799
lhumerus -41.104599 4.809940 78.204903
rthumb -0.920515 -28.863600
root -28.213900 19.564301 -7.607610 146.319000 89.693604 139.981003
ltoes 15.382200
lfemur -16.804800 0.415962 -22.063900
3
upperback -3.661020 0.335546 -0.718913
rfoot -35.005100 -33.816399
lradius 27.512501
lthumb 2.590830 58.310398
rradius 24.283701
lwrist -12.290100
rhand -29.572901 -0.207272
rhumerus -40.894001 -8.756940 -83.438698
lowerneck -8.031080 -1.557530 2.289310
lhand -23.882500 28.346399
ltibia 34.572800
head 3.675650 -1.098050 -0.983072
rwrist 8.598290
lfingers 7.125020
rtoes 12.440900
lowerback -1.213780 0.226009 -0.914535
rfingers 7.125020
lclavicle -0.000000 0.000000
upperneck 7.034470 -2.229340 -1.364070
rfemur -18.743900 -3.732080 22.728001
thorax -3.078530 0.207089 -0.232601
rclavicle -0.000000 0.000000
rtibia 38.870800
lfoot -26.611401 22.699301
lhumerus -41.251202 4.681700 78.817200
rthumb -2.904950 -30.167200
root -28.305500 19.571600 -7.651110 161.826004 89.405701 155.606003
ltoes 15.407900
lfemur -16.990101 0.071167 -22.257299
4
upperback -3.605660 0.349030 -0.717234
rfoot -34.603199 -33.870499
lradius 26.899700
lthumb 2.555100 58.104099
rradius 24.020000
lwrist -12.817700
rhand -29.181499 -0.707104
rhumerus -40.284100 -7.539480 -84.915199
lowerneck -7.921190 -1.501500 2.269030
lhand -23.919500 28.139601
ltibia 34.521999
head 3.712850 -1.056390 -0.964064
rwrist 9.054660
lfingers 7.125020
rtoes 12.718200
lowerback -1.211390 0.236380 -0.760648
rfingers 7.125020
lclavicle -0.000000 0.000000
upperneck 7.195590 -2.150790 -1.329480
rfemur -18.990601 -3.471990 22.768600
thorax -3.021640 0.208416 -0.316892
rclavicle -0.000000 0.000000
rtibia 38.805199
lfoot -26.249399 22.749001
lhumerus -41.182499 4.516420 78.997902
rthumb -2.526970 -30.671900
root -28.431101 19.584299 -7.659540 150.218002 89.702599 144.153000
ltoes 15.718900
lfemur -17.227501 0.406546 -22.225901
5
upperback -3.792120 0.489102 -0.709056
rfoot -33.909599 -33.627998
lradius 26.476900
lthumb 2.446690 57.943901
rradius 24.551201
lwrist -13.078800
rhand -28.645100 -0.137259
rhumerus -39.808498 -6.187900 -85.742302
lowerneck -7.327850 -1.437140 2.214110
lhand -24.031799 27.978201
ltibia 34.456299
head 3.468520 -1.007200 -0.899766
rwrist 8.866420
lfingers 7.125020
rtoes 13.276200
lowerback -0.496765 0.344861 -0.378756
rfingers 7.125020
lclavicle -0.000000 0.000000
upperneck 6.821190 -2.054730 -1.222190
rfemur -19.011000 -3.105120 22.753099
thorax -3.614930 0.267392 -0.531675
rclavicle -0.000000 0.000000
rtibia 38.757301
lfoot -26.117399 22.623501
lhumerus -40.941200 4.044310 79.644997
rthumb -2.008970 -30.107500
root -28.587700 19.592100 -7.673810 13.432400 89.362701 7.859120
ltoes 16.852400
lfemur -17.174999 1.379810 -22.215799
6
upperback -4.069850 0.411628 -0.594324
rfoot -33.534199 -33.108898
lradius 26.638700
lthumb 2.312620 58.696602
rradius 24.422600
lwrist -12.713500
rhand -28.767900 0.347546
rhumerus -40.154499 -6.446690 -85.317596
lowerneck -6.502670 -1.375640 2.246000
lhand -24.170601 28.729401
ltibia 34.478699
head 3.306930 -0.953615 -0.885244
rwrist 9.012400
lfingers 7.125020
rtoes 14.077300
lowerback 0.132538 0.280185 -0.003995
rfingers 7.125020
lclavicle 0.000000 -0.000000
upperneck 6.812130 -1.954340 -1.212920
rfemur -19.117100 -3.300770 22.714500
thorax -4.258910 0.218389 -0.627934
rclavicle 0.000000 -0.000000
rtibia 38.776199
lfoot -25.969700 22.582300
lhumerus -40.722900 2.402460 81.229599
rthumb -2.127520 -29.621599
root -28.710600 19.596300 -7.709130 3.413870 88.978996 -1.833550
ltoes 17.402201
lfemur -17.231199 1.785520 -22.213100
7
upperback -4.302290 0.543451 -0.544984
rfoot -34.837601 -32.599201
lradius 26.704300
lthumb 2.067700 58.743698
rradius 23.500900
lwrist -12.632600
rhand -29.348900 -0.847874
rhumerus -40.949600 -6.823890 -85.241302
lowerneck -5.862500 -1.337790 2.373210
lhand -24.424200 28.774000
ltibia 34.474098
head 3.212820 -0.918305 -0.940083
rwrist 9.579700
lfingers 7.125020
rtoes 14.833200
lowerback 0.625682 0.369120 0.310644
rfingers 7.125020
lclavicle 0.000000 -0.000000
upperneck 6.898210 -1.885960 -1.346220
rfemur -19.051500 -2.662630 22.866400
thorax -4.778470 0.272690 -0.764876
rclavicle 0.000000 -0.000000
rtibia 38.626999
lfoot -26.063200 22.420000
lhumerus -40.225601 1.598410 81.397202
rthumb -2.688640 -30.810699
root -28.789801 19.596800 -7.729720 -10.041100 88.929298 -15.154700
ltoes 18.388599
lfemur -17.292299 1.842860 -21.934299
8
upperback -4.306980 0.598567 -0.487408
rfoot -35.149200 -32.473099
lradius 26.271900
lthumb 2.340180 57.663399
rradius 23.518200
lwrist -12.944900
rhand -29.098200 -0.586595
rhumerus -41.625401 -6.922550 -84.955002
lowerneck -5.577940 -1.508760 2.172100
lhand -24.142000 27.696501
ltibia 34.562599
head 3.350760 -1.014000 -0.791244
rwrist 9.467370
lfingers 7.125020
rtoes 13.805400
lowerback 0.628163 0.409190 0.283673
rfingers 7.125020
lclavicle 0.000000 -0.000000
upperneck 7.457020 -2.113400 -0.961125
rfemur -18.449699 -2.710960 23.093500
thorax -4.784760 0.302415 -0.692984
rclavicle 0.000000 -0.000000
rtibia 38.611099
lfoot -26.597099 22.314501
lhumerus -40.795799 1.669940 80.871597
rthumb -2.446550 -30.552299
root -28.730301 19.581400 -7.724500 -21.982000 88.903397 -26.762199
ltoes 18.113501
lfemur -16.699699 1.801720 -21.649799
